<?xml version="1.0" encoding="UTF-8"?>
<svg version="1.1" xmlns="http://www.w3.org/2000/svg" width="300" height="159">
<path d="M0 0 C0.59167969 0.08378906 1.18335938 0.16757812 1.79296875 0.25390625 C6.09939457 0.80889424 9.75552644 1.23226652 14 0 C14.33 0.99 14.66 1.98 15 3 C16.32 2.34 17.64 1.68 19 1 C21 3 21 3 21 6 C23.93761795 6.2448015 25.53765285 6.29422092 28.0625 4.6875 C29.0215625 3.8521875 29.0215625 3.8521875 30 3 C32.4038592 0.90631618 33.47365491 0.04896233 36.6875 -0.25 C39 -0 39 -0 40 1 C40.55101533 4.2273755 40.48314216 6.266131 38.66015625 9.03515625 C37.57307816 10.40359573 36.45771068 11.75013908 35.3125 13.0703125 C33.62506561 15.16228588 33.62506561 15.16228588 34 19 C35.32 19.33 36.64 19.66 38 20 C38 24 38 24 37 26 C37.99 26 38.98 26 40 26 C39.814375 26.825 39.62875 27.65 39.4375 28.5 C39.06970207 31.44238343 39.08702265 33.38529638 39.5 36.25 C40 40 40 40 39 42 C37.296875 41.90234375 37.296875 41.90234375 35 41 C33.25517076 38.87673925 31.74911145 36.84534887 30.25 34.5625 C29.83878906 33.96373047 29.42757812 33.36496094 29.00390625 32.74804688 C26 28.29208627 26 28.29208627 26 26 C25.34 26 24.68 26 24 26 C24 25.34 24 24.68 24 24 C23.39671875 24.48210938 22.7934375 24.96421875 22.171875 25.4609375 C21.37265625 26.09257812 20.5734375 26.72421875 19.75 27.375 C18.96109375 28.00148438 18.1721875 28.62796875 17.359375 29.2734375 C15.28818811 30.78910737 13.32930503 31.94219634 11 33 C11.37125 34.093125 11.7425 35.18625 12.125 36.3125 C12.558125 38.1378125 12.558125 38.1378125 13 40 C12.34 40.99 11.68 41.98 11 43 C7.68273845 42.42805835 6.27364177 41.42999536 4 39 C3.22398437 39.68964844 2.44796875 40.37929688 1.6484375 41.08984375 C-10.83828842 52.02282255 -24.07122744 59.84448488 -39 67 C-40.12535156 67.60521484 -40.12535156 67.60521484 -41.2734375 68.22265625 C-43 69 -43 69 -46 69 C-46 69.66 -46 70.32 -46 71 C-45.236875 71.0825 -44.47375 71.165 -43.6875 71.25 C-38.5850883 72.28777865 -33.8544506 74.14287032 -29 76 C-30.91932698 87.41494469 -38.44026477 96.96622241 -46.75 104.6875 C-50 107 -50 107 -51.796875 106.921875 C-55.0022514 105.58061821 -57.70223617 103.58945135 -60.5 101.5625 C-67.23375154 96.27145375 -67.23375154 96.27145375 -75.328125 95.2421875 C-76.12734375 95.33886719 -76.9265625 95.43554688 -77.75 95.53515625 C-78.9875 95.70337891 -78.9875 95.70337891 -80.25 95.875 C-81.51070312 96.03162109 -81.51070312 96.03162109 -82.796875 96.19140625 C-84.86597421 96.45004365 -86.93320179 96.72357637 -89 97 C-78.25529175 101.94291635 -67.3162396 105.59788959 -56 109 C-56 109.66 -56 110.32 -56 111 C-57.83008867 111.79913872 -59.66426966 112.58890755 -61.5 113.375 C-62.5209375 113.81585938 -63.541875 114.25671875 -64.59375 114.7109375 C-78.81628347 120.09331829 -94.92944239 119.79275088 -109 114 C-123.93185354 106.91058368 -135.00174546 95.86049904 -141.4140625 80.64453125 C-146.86113947 64.87152059 -146.76452492 48.29656449 -139.62109375 33.05859375 C-138.48091885 30.98289073 -137.30575455 28.97468618 -136 27 C-133.654743 29.2126383 -131.85995309 31.56031626 -130 34.1875 C-122.94903124 43.27837167 -113.64526957 48.13574857 -103 52 C-103.30292969 51.3915625 -103.60585937 50.783125 -103.91796875 50.15625 C-110.23166117 36.94606277 -113.64872213 23.37529235 -116 9 C-115.34 9 -114.68 9 -114 9 C-112.78602206 10.83161584 -111.6563865 12.71922684 -110.5625 14.625 C-103.09566886 27.17198018 -93.79483134 38.18782586 -83 48 C-81.64068359 49.24910156 -81.64068359 49.24910156 -80.25390625 50.5234375 C-74.45028683 55.32469014 -70.16278882 56.98147646 -62.625 56.45703125 C-61.42875 56.30621094 -60.2325 56.15539063 -59 56 C-58.33613281 55.92313965 -57.67226562 55.8462793 -56.98828125 55.76708984 C-41.22644894 53.86241371 -25.90009574 49.55980935 -11.5 42.875 C-10.7999585 42.55055908 -10.09991699 42.22611816 -9.37866211 41.8918457 C-5.62169779 40.05916884 -2.75112283 38.15817671 0 35 C-0.99 34.01 -1.98 33.02 -3 32 C-2.01 29.525 -2.01 29.525 -1 27 C1.76276177 27.52268466 4.3260876 28.10869587 7 29 C7.26554688 28.41476563 7.53109375 27.82953125 7.8046875 27.2265625 C9.3909981 24.2716702 11.50815875 22.05086912 13.7578125 19.5859375 C15.20554064 18.07333091 15.20554064 18.07333091 15 16 C13.38751344 14.5821505 13.38751344 14.5821505 11.28125 13.1796875 C10.13076172 12.37724609 10.13076172 12.37724609 8.95703125 11.55859375 C7.74080078 10.72521484 7.74080078 10.72521484 6.5 9.875 C5.28376953 9.03001953 5.28376953 9.03001953 4.04296875 8.16796875 C2.03270983 6.77261256 0.01832507 5.38365151 -2 4 C-1.34 2.68 -0.68 1.36 0 0 Z M27 9 C26.16726563 9.77988281 25.33453125 10.55976563 24.4765625 11.36328125 C21.11662334 14.56778743 21.11662334 14.56778743 18 18 C18 18.99 18 19.98 18 21 C17.071875 21.3403125 17.071875 21.3403125 16.125 21.6875 C13.77279369 22.84931972 13.77279369 22.84931972 13 25.5 C11.77750928 28.55622681 10.86808452 28.65558538 8 30 C6.73195434 32.0335948 6.73195434 32.0335948 6 34 C9.50827915 32.47920927 11.95271646 30.4004327 14.75 27.8125 C17.81883081 24.99528636 20.8973558 22.20845005 24.0625 19.5 C27.07985101 16.85212054 30.03536724 14.14896286 32.9375 11.375 C33.68902344 10.66085937 34.44054687 9.94671875 35.21484375 9.2109375 C37.19639015 6.75676843 37.657301 5.10061002 38 2 C33.06418391 2 30.46236194 5.73395756 27 9 Z M2 3 C5.00235362 6.17391668 8.19753642 8.71252601 11.75 11.25 C12.73484375 11.95640625 13.7196875 12.6628125 14.734375 13.390625 C15.48203125 13.92171875 16.2296875 14.4528125 17 15 C18.99983534 14.20882096 18.99983534 14.20882096 21 13 C21.33 12.01 21.66 11.02 22 10 C22.66 9.67 23.32 9.34 24 9 C21.64828157 8.17977388 19.2940149 7.3687346 16.9375 6.5625 C16.28072266 6.33240234 15.62394531 6.10230469 14.94726562 5.86523438 C10.62373145 4.39565872 6.53920274 3.51353789 2 3 Z M27.375 18.1875 C24.76147672 20.70598585 24.76147672 20.70598585 24.875 23.5 C26.33928273 26.75396161 28.42182571 28.53901545 31 31 C32.75668594 33.28035926 34.37014143 35.62506323 36 38 C37.08557892 34.74004193 36.91310151 32.89457573 35.78515625 29.671875 C35.51123047 28.87265625 35.23730469 28.0734375 34.95507812 27.25 C34.66052734 26.425 34.36597656 25.6 34.0625 24.75 C33.77181641 23.90953125 33.48113281 23.0690625 33.18164062 22.203125 C32.46378767 20.13194269 31.73633881 18.06466738 31 16 C29.55853951 15.8933026 29.55853951 15.8933026 27.375 18.1875 Z M0 30 C0.99 30.99 1.98 31.98 3 33 C3.33 32.34 3.66 31.68 4 31 C2.68 30.67 1.36 30.34 0 30 Z M8 36 C8 36.99 8 37.98 8 39 C8.66 39.33 9.32 39.66 10 40 C9.34 38.68 8.68 37.36 8 36 Z M-137 81 C-132.04969209 90.00055985 -123.47770788 95.02454268 -114.5625 99.5625 C-113.86415039 99.92134277 -113.16580078 100.28018555 -112.44628906 100.64990234 C-108.37923441 102.77047438 -108.37923441 102.77047438 -104 102 C-104.87011719 101.32904297 -104.87011719 101.32904297 -105.7578125 100.64453125 C-106.53898437 100.03996094 -107.32015625 99.43539062 -108.125 98.8125 C-109.27355469 97.92498047 -109.27355469 97.92498047 -110.4453125 97.01953125 C-112.27787174 95.57085674 -114.06664576 94.06613172 -115.82421875 92.52734375 C-119.17373315 89.72271364 -122.81520549 87.74168461 -126.6875 85.75 C-127.35072266 85.399375 -128.01394531 85.04875 -128.69726562 84.6875 C-131.43571289 83.2534692 -134.06269034 81.97910322 -137 81 Z " fill="#F8C015" transform="translate(260,0)"/>
<path d="M0 0 C0.59167969 0.08378906 1.18335938 0.16757812 1.79296875 0.25390625 C6.09939457 0.80889424 9.75552644 1.23226652 14 0 C14.33 0.99 14.66 1.98 15 3 C16.32 2.34 17.64 1.68 19 1 C21 3 21 3 21 6 C23.93761795 6.2448015 25.53765285 6.29422092 28.0625 4.6875 C29.0215625 3.8521875 29.0215625 3.8521875 30 3 C32.4038592 0.90631618 33.47365491 0.04896233 36.6875 -0.25 C39 0 39 0 40 1 C40.55101533 4.2273755 40.48314216 6.266131 38.66015625 9.03515625 C37.57307816 10.40359573 36.45771068 11.75013908 35.3125 13.0703125 C33.62506561 15.16228588 33.62506561 15.16228588 34 19 C35.32 19.33 36.64 19.66 38 20 C38 24 38 24 37 26 C37.99 26 38.98 26 40 26 C39.814375 26.825 39.62875 27.65 39.4375 28.5 C39.06970207 31.44238343 39.08702265 33.38529638 39.5 36.25 C40 40 40 40 39 42 C37.296875 41.90234375 37.296875 41.90234375 35 41 C33.25517076 38.87673925 31.74911145 36.84534887 30.25 34.5625 C29.83878906 33.96373047 29.42757812 33.36496094 29.00390625 32.74804688 C26 28.29208627 26 28.29208627 26 26 C25.34 26 24.68 26 24 26 C24 25.34 24 24.68 24 24 C23.39671875 24.48210938 22.7934375 24.96421875 22.171875 25.4609375 C21.37265625 26.09257812 20.5734375 26.72421875 19.75 27.375 C18.96109375 28.00148438 18.1721875 28.62796875 17.359375 29.2734375 C15.28818811 30.78910737 13.32930503 31.94219634 11 33 C11.37125 34.093125 11.7425 35.18625 12.125 36.3125 C12.558125 38.1378125 12.558125 38.1378125 13 40 C12.34 40.99 11.68 41.98 11 43 C7.68273845 42.42805835 6.27364177 41.42999536 4 39 C3.22398437 39.68964844 2.44796875 40.37929688 1.6484375 41.08984375 C-10.83828842 52.02282255 -24.07122744 59.84448488 -39 67 C-40.12535156 67.60521484 -40.12535156 67.60521484 -41.2734375 68.22265625 C-43 69 -43 69 -46 69 C-46 69.66 -46 70.32 -46 71 C-45.236875 71.0825 -44.47375 71.165 -43.6875 71.25 C-38.5850883 72.28777865 -33.8544506 74.14287032 -29 76 C-30.91932698 87.41494469 -38.44026477 96.96622241 -46.75 104.6875 C-50 107 -50 107 -51.7890625 106.9140625 C-55.01063764 105.58217455 -57.78066053 103.67155376 -60.625 101.6875 C-61.21023437 101.29626953 -61.79546875 100.90503906 -62.3984375 100.50195312 C-65.6175761 98.27587448 -67.43040587 96.55521962 -69 93 C-65.10582522 91.68254324 -61.2093878 90.37190802 -57.3125 89.0625 C-56.20970703 88.68931641 -55.10691406 88.31613281 -53.97070312 87.93164062 C-52.90400391 87.57392578 -51.83730469 87.21621094 -50.73828125 86.84765625 C-49.75899658 86.51773682 -48.77971191 86.18781738 -47.77075195 85.84790039 C-45.19012329 85.05818118 -42.65430428 84.47663086 -40 84 C-40 83.34 -40 82.68 -40 82 C-37.36 80.68 -34.72 79.36 -32 78 C-33.1331665 78.01571045 -34.26633301 78.0314209 -35.43383789 78.04760742 C-39.71110689 78.10265302 -43.98834589 78.13661624 -48.26586914 78.16479492 C-50.10348812 78.17971405 -51.94107257 78.20005668 -53.77856445 78.22631836 C-69.99898088 78.4520322 -84.1498284 77.18902816 -99 70 C-99.78890625 69.61972656 -100.5778125 69.23945312 -101.390625 68.84765625 C-114.88270787 61.84215168 -124.41849406 51.22255192 -131.625 38 C-131.98029785 37.35281006 -132.3355957 36.70562012 -132.70166016 36.03881836 C-133.55315634 34.40084384 -134.28641561 32.70258732 -135 31 C-134.505 29.515 -134.505 29.515 -134 28 C-133.6596875 28.56847656 -133.319375 29.13695313 -132.96875 29.72265625 C-125.78524827 41.16658587 -115.72416266 47.75861245 -103 52 C-103.30292969 51.3915625 -103.60585937 50.783125 -103.91796875 50.15625 C-110.23166117 36.94606277 -113.64872213 23.37529235 -116 9 C-115.34 9 -114.68 9 -114 9 C-112.78602206 10.83161584 -111.6563865 12.71922684 -110.5625 14.625 C-103.09566886 27.17198018 -93.79483134 38.18782586 -83 48 C-81.64068359 49.24910156 -81.64068359 49.24910156 -80.25390625 50.5234375 C-74.45028683 55.32469014 -70.16278882 56.98147646 -62.625 56.45703125 C-61.42875 56.30621094 -60.2325 56.15539063 -59 56 C-58.33613281 55.92313965 -57.67226562 55.8462793 -56.98828125 55.76708984 C-41.22644894 53.86241371 -25.90009574 49.55980935 -11.5 42.875 C-10.7999585 42.55055908 -10.09991699 42.22611816 -9.37866211 41.8918457 C-5.62169779 40.05916884 -2.75112283 38.15817671 0 35 C-0.99 34.01 -1.98 33.02 -3 32 C-2.01 29.525 -2.01 29.525 -1 27 C1.76276177 27.52268466 4.3260876 28.10869587 7 29 C7.26554688 28.41476563 7.53109375 27.82953125 7.8046875 27.2265625 C9.3909981 24.2716702 11.50815875 22.05086912 13.7578125 19.5859375 C15.20554064 18.07333091 15.20554064 18.07333091 15 16 C13.38751344 14.5821505 13.38751344 14.5821505 11.28125 13.1796875 C10.13076172 12.37724609 10.13076172 12.37724609 8.95703125 11.55859375 C7.74080078 10.72521484 7.74080078 10.72521484 6.5 9.875 C5.28376953 9.03001953 5.28376953 9.03001953 4.04296875 8.16796875 C2.03270983 6.77261256 0.01832507 5.38365151 -2 4 C-1.34 2.68 -0.68 1.36 0 0 Z M27 9 C26.16726563 9.77988281 25.33453125 10.55976563 24.4765625 11.36328125 C21.11662334 14.56778743 21.11662334 14.56778743 18 18 C18 18.99 18 19.98 18 21 C17.071875 21.3403125 17.071875 21.3403125 16.125 21.6875 C13.77279369 22.84931972 13.77279369 22.84931972 13 25.5 C11.77750928 28.55622681 10.86808452 28.65558538 8 30 C6.73195434 32.0335948 6.73195434 32.0335948 6 34 C9.50827915 32.47920927 11.95271646 30.4004327 14.75 27.8125 C17.81883081 24.99528636 20.8973558 22.20845005 24.0625 19.5 C27.07985101 16.85212054 30.03536724 14.14896286 32.9375 11.375 C33.68902344 10.66085937 34.44054687 9.94671875 35.21484375 9.2109375 C37.19639015 6.75676843 37.657301 5.10061002 38 2 C33.06418391 2 30.46236194 5.73395756 27 9 Z M2 3 C5.00235362 6.17391668 8.19753642 8.71252601 11.75 11.25 C12.73484375 11.95640625 13.7196875 12.6628125 14.734375 13.390625 C15.48203125 13.92171875 16.2296875 14.4528125 17 15 C18.99983534 14.20882096 18.99983534 14.20882096 21 13 C21.33 12.01 21.66 11.02 22 10 C22.66 9.67 23.32 9.34 24 9 C21.64828157 8.17977388 19.2940149 7.3687346 16.9375 6.5625 C16.28072266 6.33240234 15.62394531 6.10230469 14.94726562 5.86523438 C10.62373145 4.39565872 6.53920274 3.51353789 2 3 Z M27.375 18.1875 C24.76147672 20.70598585 24.76147672 20.70598585 24.875 23.5 C26.33928273 26.75396161 28.42182571 28.53901545 31 31 C32.75668594 33.28035926 34.37014143 35.62506323 36 38 C37.08557892 34.74004193 36.91310151 32.89457573 35.78515625 29.671875 C35.51123047 28.87265625 35.23730469 28.0734375 34.95507812 27.25 C34.66052734 26.425 34.36597656 25.6 34.0625 24.75 C33.77181641 23.90953125 33.48113281 23.0690625 33.18164062 22.203125 C32.46378767 20.13194269 31.73633881 18.06466738 31 16 C29.55853951 15.8933026 29.55853951 15.8933026 27.375 18.1875 Z M0 30 C0.99 30.99 1.98 31.98 3 33 C3.33 32.34 3.66 31.68 4 31 C2.68 30.67 1.36 30.34 0 30 Z M8 36 C8 36.99 8 37.98 8 39 C8.66 39.33 9.32 39.66 10 40 C9.34 38.68 8.68 37.36 8 36 Z " fill="#EE5A2D" transform="translate(260,0)"/>
<path d="M0 0 C2.72319724 2.6431032 5.1870986 5.24322818 7.5 8.25 C14.56598664 16.56933646 25.02398588 22.02158956 35 26 C34.278125 25.29875 33.55625 24.5975 32.8125 23.875 C30.00176187 21.07229255 27.50483774 18.07737208 25 15 C27.94328298 15.55186556 30.79417378 16.21536916 33.6875 17 C36.72747874 17.78713102 39.57927166 18.14377694 42.7109375 18.33203125 C47.99779395 18.83378523 52.16192687 20.45543305 56.9375 22.6875 C66.41191686 26.90982565 76.06258329 30.06217468 86 33 C86 33.66 86 34.32 86 35 C84.16991133 35.79913872 82.33573034 36.58890755 80.5 37.375 C79.4790625 37.81585938 78.458125 38.25671875 77.40625 38.7109375 C63.18371653 44.09331829 47.07055761 43.79275088 33 38 C18.19798309 30.97222813 7.5392718 20.11715706 0.75 5.265625 C0 3 0 3 0 0 Z " fill="#0F9344" transform="translate(118,76)"/>
<path d="M0 0 C1.23621094 0.45503906 2.47242188 0.91007812 3.74609375 1.37890625 C4.67550781 1.72824219 5.60492188 2.07757813 6.5625 2.4375 C4.64317302 13.85244469 -2.87776477 23.40372241 -11.1875 31.125 C-14.4375 33.4375 -14.4375 33.4375 -16.2265625 33.3515625 C-19.44813764 32.01967455 -22.21816053 30.10905376 -25.0625 28.125 C-25.64773437 27.73376953 -26.23296875 27.34253906 -26.8359375 26.93945312 C-30.0550761 24.71337448 -31.86790587 22.99271962 -33.4375 19.4375 C-29.54332522 18.12004324 -25.6468878 16.80940802 -21.75 15.5 C-20.09581055 14.94022461 -20.09581055 14.94022461 -18.40820312 14.36914062 C-17.34150391 14.01142578 -16.27480469 13.65371094 -15.17578125 13.28515625 C-14.19649658 12.95523682 -13.21721191 12.62531738 -12.20825195 12.28540039 C-9.62762329 11.49568118 -7.09180428 10.91413086 -4.4375 10.4375 C-4.4375 9.7775 -4.4375 9.1175 -4.4375 8.4375 C-1.7975 7.1175 0.8425 5.7975 3.5625 4.4375 C-8.3175 4.4375 -20.1975 4.4375 -32.4375 4.4375 C-32.4375 3.7775 -32.4375 3.1175 -32.4375 2.4375 C-30.4575 2.4375 -28.4775 2.4375 -26.4375 2.4375 C-26.4375 1.7775 -26.4375 1.1175 -26.4375 0.4375 C-24.59054147 -0.26913602 -22.73445865 -0.95194442 -20.875 -1.625 C-19.84246094 -2.00785156 -18.80992187 -2.39070313 -17.74609375 -2.78515625 C-11.36012517 -4.28551959 -5.9983689 -2.22796559 0 0 Z " fill="#067589" transform="translate(224.4375,73.5625)"/>
<path d="M0 0 C0.59167969 0.08378906 1.18335938 0.16757812 1.79296875 0.25390625 C6.09939457 0.80889424 9.75552644 1.23226652 14 0 C14.33 0.99 14.66 1.98 15 3 C16.32 2.34 17.64 1.68 19 1 C21 3 21 3 21 6 C23.93761795 6.2448015 25.53765285 6.29422092 28.0625 4.6875 C29.0215625 3.8521875 29.0215625 3.8521875 30 3 C32.4038592 0.90631618 33.47365491 0.04896233 36.6875 -0.25 C39 -0 39 -0 40 1 C40.55101533 4.2273755 40.48314216 6.266131 38.66015625 9.03515625 C37.57307816 10.40359573 36.45771068 11.75013908 35.3125 13.0703125 C33.62506561 15.16228588 33.62506561 15.16228588 34 19 C35.32 19.33 36.64 19.66 38 20 C38 24 38 24 37 26 C37.99 26 38.98 26 40 26 C39.7215625 27.2375 39.7215625 27.2375 39.4375 28.5 C39.06970207 31.44238343 39.08702265 33.38529638 39.5 36.25 C40 40 40 40 39 42 C37.296875 41.90234375 37.296875 41.90234375 35 41 C33.25517076 38.87673925 31.74911145 36.84534887 30.25 34.5625 C29.83878906 33.96373047 29.42757812 33.36496094 29.00390625 32.74804688 C26 28.29208627 26 28.29208627 26 26 C25.34 26 24.68 26 24 26 C24 25.34 24 24.68 24 24 C23.39671875 24.48210938 22.7934375 24.96421875 22.171875 25.4609375 C21.37265625 26.09257812 20.5734375 26.72421875 19.75 27.375 C18.96109375 28.00148438 18.1721875 28.62796875 17.359375 29.2734375 C15.28818811 30.78910737 13.32930503 31.94219634 11 33 C11.37125 34.093125 11.7425 35.18625 12.125 36.3125 C12.41375 37.529375 12.7025 38.74625 13 40 C12.34 40.99 11.68 41.98 11 43 C7.75728494 42.4409112 6.06942576 41.5867822 4 39 C4 38.34 4 37.68 4 37 C3.401875 36.9175 2.80375 36.835 2.1875 36.75 C-0.71277822 35.7556189 -1.63416979 34.73166042 -3 32 C-2.1875 29.25 -2.1875 29.25 -1 27 C1.76276177 27.52268466 4.3260876 28.10869587 7 29 C7.26554687 28.41476563 7.53109375 27.82953125 7.8046875 27.2265625 C9.3909981 24.2716702 11.50815875 22.05086912 13.7578125 19.5859375 C15.20554064 18.07333091 15.20554064 18.07333091 15 16 C13.38751344 14.5821505 13.38751344 14.5821505 11.28125 13.1796875 C10.51425781 12.64472656 9.74726563 12.10976562 8.95703125 11.55859375 C8.14621094 11.00300781 7.33539063 10.44742187 6.5 9.875 C5.68917969 9.31167969 4.87835938 8.74835937 4.04296875 8.16796875 C2.03270983 6.77261256 0.01832507 5.38365151 -2 4 C-1.34 2.68 -0.68 1.36 0 0 Z M27 9 C26.16726563 9.77988281 25.33453125 10.55976563 24.4765625 11.36328125 C21.11662334 14.56778743 21.11662334 14.56778743 18 18 C18 18.99 18 19.98 18 21 C17.071875 21.3403125 17.071875 21.3403125 16.125 21.6875 C13.77279369 22.84931972 13.77279369 22.84931972 13 25.5 C11.77750928 28.55622681 10.86808452 28.65558538 8 30 C6.73195434 32.0335948 6.73195434 32.0335948 6 34 C9.50827915 32.47920927 11.95271646 30.4004327 14.75 27.8125 C17.81883081 24.99528636 20.8973558 22.20845005 24.0625 19.5 C27.07985101 16.85212054 30.03536724 14.14896286 32.9375 11.375 C33.68902344 10.66085937 34.44054687 9.94671875 35.21484375 9.2109375 C37.19639015 6.75676843 37.657301 5.10061002 38 2 C33.06418391 2 30.46236194 5.73395756 27 9 Z M2 3 C5.00235362 6.17391668 8.19753642 8.71252601 11.75 11.25 C12.73484375 11.95640625 13.7196875 12.6628125 14.734375 13.390625 C15.48203125 13.92171875 16.2296875 14.4528125 17 15 C18.99983534 14.20882096 18.99983534 14.20882096 21 13 C21.33 12.01 21.66 11.02 22 10 C22.66 9.67 23.32 9.34 24 9 C21.64828157 8.17977388 19.2940149 7.3687346 16.9375 6.5625 C16.28072266 6.33240234 15.62394531 6.10230469 14.94726562 5.86523438 C10.62373145 4.39565872 6.53920274 3.51353789 2 3 Z M27.375 18.1875 C24.76147672 20.70598585 24.76147672 20.70598585 24.875 23.5 C26.33928273 26.75396161 28.42182571 28.53901545 31 31 C32.75668594 33.28035926 34.37014143 35.62506323 36 38 C37.08557892 34.74004193 36.91310151 32.89457573 35.78515625 29.671875 C35.51123047 28.87265625 35.23730469 28.0734375 34.95507812 27.25 C34.66052734 26.425 34.36597656 25.6 34.0625 24.75 C33.77181641 23.90953125 33.48113281 23.0690625 33.18164062 22.203125 C32.46378767 20.13194269 31.73633881 18.06466738 31 16 C29.55853951 15.8933026 29.55853951 15.8933026 27.375 18.1875 Z M0 30 C0.99 30.99 1.98 31.98 3 33 C3.33 32.34 3.66 31.68 4 31 C2.68 30.67 1.36 30.34 0 30 Z M8 36 C8 36.99 8 37.98 8 39 C8.66 39.33 9.32 39.66 10 40 C9.34 38.68 8.68 37.36 8 36 Z " fill="#E8562C" transform="translate(260,0)"/>
<path d="M0 0 C0.66 0 1.32 0 2 0 C3.21397794 1.83161584 4.3436135 3.71922684 5.4375 5.625 C14.76057204 21.29113707 26.81702818 35.30123073 42.015625 45.4765625 C42.67046875 45.97929688 43.3253125 46.48203125 44 47 C44 47.66 44 48.32 44 49 C35.7574683 49.26305952 28.08808989 48.60614551 20 47 C20 46.34 20 45.68 20 45 C18.02 45 16.04 45 14 45 C6.76581015 30.48190079 2.61107327 15.96363496 0 0 Z " fill="#077487" transform="translate(144,9)"/>
<path d="M0 0 C0 3.96 0 7.92 0 12 C1.98 12 3.96 12 6 12 C6.495 12.99 6.495 12.99 7 14 C7.66 13.34 8.32 12.68 9 12 C12.5625 11.8125 12.5625 11.8125 16 12 C17 13 17 13 17.0625 16.0625 C17.041875 17.031875 17.02125 18.00125 17 19 C15.125 19.625 15.125 19.625 13 20 C11 18 11 18 10 15 C7.57520264 18.63719605 7.61337423 20.85703482 7.375 25.1875 C7.30023438 26.45980469 7.22546875 27.73210937 7.1484375 29.04296875 C7.09945312 30.01878906 7.05046875 30.99460938 7 32 C8.32 32 9.64 32 11 32 C11 32.66 11 33.32 11 34 C6.71 34 2.42 34 -2 34 C-2 33.34 -2 32.68 -2 32 C-0.515 31.505 -0.515 31.505 1 31 C1 26.05 1 21.1 1 16 C-0.32 15.34 -1.64 14.68 -3 14 C-3.9765625 11.90625 -3.9765625 11.90625 -4.625 9.5 C-5.60483709 5.86978463 -5.60483709 5.86978463 -8 3 C-9.32 2.67 -10.64 2.34 -12 2 C-12 11.57 -12 21.14 -12 31 C-8.535 31.495 -8.535 31.495 -5 32 C-5 32.66 -5 33.32 -5 34 C-11.6 34 -18.2 34 -25 34 C-25 33.34 -25 32.68 -25 32 C-22.03 31.505 -22.03 31.505 -19 31 C-18.67 21.43 -18.34 11.86 -18 2 C-23.04577933 3.43339791 -23.04577933 3.43339791 -24.6875 6.8125 C-25.120625 7.864375 -25.55375 8.91625 -26 10 C-26.391875 10.94875 -26.78375 11.8975 -27.1875 12.875 C-27.455625 13.57625 -27.72375 14.2775 -28 15 C-28.66 15 -29.32 15 -30 15 C-30 10.05 -30 5.1 -30 0 C-19.90272288 -1.34630362 -10.09727712 -1.34630362 0 0 Z " fill="#2E2826" transform="translate(133,111)"/>
<path d="M0 0 C2.94328298 0.55186556 5.79417378 1.21536916 8.6875 2 C11.72747874 2.78713102 14.57927166 3.14377694 17.7109375 3.33203125 C22.99779395 3.83378523 27.16192687 5.45543305 31.9375 7.6875 C41.41191686 11.90982565 51.06258329 15.06217468 61 18 C60.67 18.66 60.34 19.32 60 20 C36.56235306 19.32969254 17.23751458 18.76099658 0 1 C0 0.67 0 0.34 0 0 Z " fill="#043F1C" transform="translate(143,91)"/>
<path d="M0 0 C34.65 0 69.3 0 105 0 C105 0.99 105 1.98 105 3 C70.68 3 36.36 3 1 3 C0.67 2.01 0.34 1.02 0 0 Z " fill="#D81E1A" transform="translate(108,148)"/>
<path d="M0 0 C2.74058204 2.66695447 5.15914873 5.53546183 7.59765625 8.4765625 C8.94373176 10.11986099 8.94373176 10.11986099 11 11 C11.27585938 11.60972656 11.55171875 12.21945313 11.8359375 12.84765625 C14.16083894 17.14638341 19.00418029 19.37179716 23 22 C23.61875 22.44601563 24.2375 22.89203125 24.875 23.3515625 C37.67286738 32.20722966 54.07376382 34.92476605 69 38 C69 38.33 69 38.66 69 39 C67.02 39 65.04 39 63 39 C63 39.66 63 40.32 63 41 C43.04701837 39.2838899 24.35856919 32.39441354 10.515625 17.2890625 C0 4.74591503 0 4.74591503 0 0 Z " fill="#983E08" transform="translate(129,37)"/>
<path d="M0 0 C1.98 0 3.96 0 6 0 C6 0.66 6 1.32 6 2 C6.69867188 2 7.39734375 2 8.1171875 2 C18 2 18 2 19.8125 2.5625 C22.46396657 3.09279331 24.39891439 2.6502714 27 2 C27 1.34 27 0.68 27 0 C27.66 0 28.32 0 29 0 C29.33 0.66 29.66 1.32 30 2 C30.69867187 2 31.39734375 2 32.1171875 2 C38.078125 2 44.0390625 2 50 2 C50.495 3.98 50.495 3.98 51 6 C51.66 6 52.32 6 53 6 C52.67 6.99 52.34 7.98 52 9 C47.07504045 9 42.39928413 8.71245077 37.5078125 8.12109375 C35.06088561 8.00293996 33.33782261 8.3578513 31 9 C28.75 8.5625 28.75 8.5625 27 8 C26.67 6.68 26.34 5.36 26 4 C25.67 5.32 25.34 6.64 25 8 C19.375 9.125 19.375 9.125 16 8 C13.3430809 8.87914688 13.3430809 8.87914688 11 10 C11 9.34 11 8.68 11 8 C10.28972656 8.08378906 9.57945313 8.16757813 8.84765625 8.25390625 C7.92855469 8.35574219 7.00945313 8.45757812 6.0625 8.5625 C4.68771484 8.71912109 4.68771484 8.71912109 3.28515625 8.87890625 C2.53105469 8.91886719 1.77695312 8.95882812 1 9 C0 8 0 8 -0.09765625 6.15234375 C-0.06510417 4.1015625 -0.03255208 2.05078125 0 0 Z M5 3 C5 3.66 5 4.32 5 5 C4.01 5 3.02 5 2 5 C2.33 5.66 2.66 6.32 3 7 C4.32 6.67 5.64 6.34 7 6 C6.67 5.01 6.34 4.02 6 3 C5.67 3 5.34 3 5 3 Z M10 4 C11 7 11 7 11 7 Z M13 4 C13.33 4.99 13.66 5.98 14 7 C14.33 6.01 14.66 5.02 15 4 C14.34 4 13.68 4 13 4 Z M43 4 C43.33 4.99 43.66 5.98 44 7 C44.33 6.01 44.66 5.02 45 4 C44.34 4 43.68 4 43 4 Z " fill="#2A2723" transform="translate(0,149)"/>
<path d="M0 0 C2.67912981 1.99386106 4.63556847 3.58036778 5.49047852 6.91064453 C5.71411719 9.05626478 5.79515199 11.15556392 5.8125 13.3125 C5.83763672 14.05306641 5.86277344 14.79363281 5.88867188 15.55664062 C5.94718443 17.37052969 5.97654349 19.18531903 6 21 C6.33 19.35 6.66 17.7 7 16 C7.66 16 8.32 16 9 16 C8.125 22.875 8.125 22.875 7 24 C5.33382885 24.04063832 3.66611905 24.042721 2 24 C1.67 23.01 1.34 22.02 1 21 C0.34 21 -0.32 21 -1 21 C-1 21.66 -1 22.32 -1 23 C-4.12860495 24.56430248 -6.55602925 24.35627284 -10 24 C-12.5625 21.875 -12.5625 21.875 -14 19 C-13.8125 15.9375 -13.8125 15.9375 -12 13 C-8.17675847 10.6287147 -4.52386764 9 0 9 C-0.66 7.02 -1.32 5.04 -2 3 C-3.65 3 -5.3 3 -7 3 C-6.67 4.65 -6.34 6.3 -6 8 C-7.65614657 8.38218767 -9.32457024 8.71395102 -11 9 C-12 8 -12 8 -12.3125 5.625 C-12 3 -12 3 -10.5 1.1875 C-7.05941875 -0.44677609 -3.66468116 -1.03730267 0 0 Z M-7 14 C-7.89207179 17.0957107 -7.89207179 17.0957107 -8 20 C-6.02 20.99 -6.02 20.99 -4 22 C-2.29159719 20.36587557 -1.06546953 19.13093906 0 17 C0.039992 15.00039988 0.04346799 12.99952758 0 11 C-3.07258075 11 -4.59196729 12.14766715 -7 14 Z " fill="#312727" transform="translate(165,122)"/>
<path d="M0 0 C1.23621094 0.45503906 2.47242188 0.91007812 3.74609375 1.37890625 C4.67550781 1.72824219 5.60492188 2.07757813 6.5625 2.4375 C5.98905667 5.88419625 5.12388422 8.65938165 3.5 11.75 C2.95666016 12.79607422 2.95666016 12.79607422 2.40234375 13.86328125 C2.12519531 14.38277344 1.84804687 14.90226562 1.5625 15.4375 C0.9025 15.4375 0.2425 15.4375 -0.4375 15.4375 C-0.4375 14.1175 -0.4375 12.7975 -0.4375 11.4375 C-3.0775 11.7675 -5.7175 12.0975 -8.4375 12.4375 C-8.4375 13.0975 -8.4375 13.7575 -8.4375 14.4375 C-10.7475 14.4375 -13.0575 14.4375 -15.4375 14.4375 C-9.4375 10.4375 -9.4375 10.4375 -4.4375 10.4375 C-4.4375 9.7775 -4.4375 9.1175 -4.4375 8.4375 C-1.7975 7.1175 0.8425 5.7975 3.5625 4.4375 C-8.3175 4.4375 -20.1975 4.4375 -32.4375 4.4375 C-32.4375 3.7775 -32.4375 3.1175 -32.4375 2.4375 C-30.4575 2.4375 -28.4775 2.4375 -26.4375 2.4375 C-26.4375 1.7775 -26.4375 1.1175 -26.4375 0.4375 C-24.59054147 -0.26913602 -22.73445865 -0.95194442 -20.875 -1.625 C-19.84246094 -2.00785156 -18.80992187 -2.39070313 -17.74609375 -2.78515625 C-11.36012517 -4.28551959 -5.9983689 -2.22796559 0 0 Z " fill="#24726B" transform="translate(224.4375,73.5625)"/>
<path d="M0 0 C2.375 1 2.375 1 4 2 C4 1.34 4 0.68 4 0 C4.66 0 5.32 0 6 0 C6 3.3 6 6.6 6 10 C5.34 10 4.68 10 4 10 C3.62875 9.030625 3.2575 8.06125 2.875 7.0625 C1.28947638 3.68859031 1.28947638 3.68859031 -2.1875 3.125 C-3.115625 3.08375 -4.04375 3.0425 -5 3 C-5 4.32 -5 5.64 -5 7 C-4.31292969 7.31453125 -3.62585938 7.6290625 -2.91796875 7.953125 C-2.01691406 8.38109375 -1.11585938 8.8090625 -0.1875 9.25 C1.15248047 9.87648437 1.15248047 9.87648437 2.51953125 10.515625 C5.14442692 12.08642871 6.45478964 13.3782931 8 16 C7.92325201 19.14666775 7.46103154 20.50481797 5.3125 22.8125 C2.33010093 24.34400223 0.31309774 24.35245721 -3 24 C-3.99 23.34 -4.98 22.68 -6 22 C-7.98 22.99 -7.98 22.99 -10 24 C-10 20.37 -10 16.74 -10 13 C-9.34 13 -8.68 13 -8 13 C-7.46375 14.134375 -6.9275 15.26875 -6.375 16.4375 C-4.63257149 19.54629332 -4.37723731 19.89118154 -0.75 20.9375 C0.61125 20.9684375 0.61125 20.9684375 2 21 C2.33 19.35 2.66 17.7 3 16 C1.700625 15.62875 1.700625 15.62875 0.375 15.25 C-3.29926063 13.88916273 -5.9911242 12.51905881 -9 10 C-10.125 7 -10.125 7 -10 4 C-7.26194142 -0.16184904 -4.80698859 -0.60087357 0 0 Z " fill="#322722" transform="translate(242,122)"/>
<path d="M0 0 C2.72319724 2.6431032 5.1870986 5.24322818 7.5 8.25 C13.31817466 15.15908241 21.94348762 20.16587664 30 24 C29.401875 24.268125 28.80375 24.53625 28.1875 24.8125 C26.02775192 25.98493467 24.64209744 27.19369282 23 29 C23.99 29.99 24.98 30.98 26 32 C20.88174881 32 17.6717933 28.32011179 14 25 C7.98387621 18.66781174 0 9.11037028 0 0 Z " fill="#148E3D" transform="translate(118,76)"/>
<path d="M0 0 C1.79785156 0.03344727 1.79785156 0.03344727 4 1 C5.29063785 3.50916983 6.28468523 5.82777365 7.234375 8.46484375 C7.51726379 9.21335098 7.80015259 9.96185822 8.09161377 10.73304749 C8.99262029 13.12926606 9.87101352 15.53312873 10.75 17.9375 C11.35669819 19.55455291 11.9647549 21.17109681 12.57421875 22.78710938 C17 34.61657984 17 34.61657984 17 37 C16.01 37 15.02 37 14 37 C10 27 6 17 2 7 C-2.68529226 16.75498157 -6.3477865 26.82224508 -10 37 C-10.99 37 -11.98 37 -13 37 C-12.38422601 32.25885934 -11.03450353 28.05172395 -9.27734375 23.6328125 C-9.01240616 22.95322479 -8.74746857 22.27363708 -8.47450256 21.57345581 C-7.63425265 19.42180285 -6.78602252 17.27340218 -5.9375 15.125 C-5.36340046 13.65906233 -4.7898273 12.19291841 -4.21679688 10.7265625 C-2.81727522 7.14862712 -1.4105921 3.57358457 0 0 Z " fill="#332621" transform="translate(13,108)"/>
<path d="M0 0 C1.74216797 0.02707031 1.74216797 0.02707031 3.51953125 0.0546875 C4.39996094 0.07789062 5.28039062 0.10109375 6.1875 0.125 C6.1875 1.115 6.1875 2.105 6.1875 3.125 C4.88425781 3.18107422 4.88425781 3.18107422 3.5546875 3.23828125 C-6.54559092 3.61685735 -6.54559092 3.61685735 -14.625 9.125 C-17.29822265 13.62726973 -17.28240508 18.04306358 -16.8125 23.125 C-15.44674193 27.14639877 -13.66556798 30.10271257 -9.97265625 32.37890625 C-4.8510979 34.14783508 0.81658692 33.9778517 6.1875 34.125 C6.1875 35.115 6.1875 36.105 6.1875 37.125 C-8.3297241 38.04252119 -8.3297241 38.04252119 -14.26171875 33.55859375 C-18.09996519 30.01039112 -20.58055271 26.96635428 -21.015625 21.63671875 C-21.10816383 16.06125452 -21.16826823 11.82307552 -17.8125 7.125 C-12.0972904 1.65827777 -7.86410307 -0.15887077 0 0 Z " fill="#322520" transform="translate(58.8125,107.875)"/>
<path d="M0 0 C34.65 0 69.3 0 105 0 C105 0.66 105 1.32 105 2 C70.35 2 35.7 2 0 2 C0 1.34 0 0.68 0 0 Z " fill="#273884" transform="translate(108,157)"/>
<path d="M0 0 C34.65 0 69.3 0 105 0 C105 0.66 105 1.32 105 2 C70.35 2 35.7 2 0 2 C0 1.34 0 0.68 0 0 Z " fill="#273884" transform="translate(108,153)"/>
<path d="M0 0 C3.97388157 3.66015408 4.06385389 5.38312336 5 11 C0.38 11 -4.24 11 -9 11 C-8.690625 12.299375 -8.38125 13.59875 -8.0625 14.9375 C-7.88847656 15.66839844 -7.71445313 16.39929688 -7.53515625 17.15234375 C-7.16112431 18.99969898 -7.16112431 18.99969898 -6 20 C-3.58517587 20.50059916 -3.58517587 20.50059916 -1 20 C0.66299965 17.58944746 0.66299965 17.58944746 2 15 C2.99 14.67 3.98 14.34 5 14 C4.7153924 17.41529114 4.20339329 18.78498424 1.8125 21.3125 C-1.53345441 23.32007265 -3.15998224 23.56000259 -7 23 C-10.37441999 21.5874521 -11.77695441 20.31969868 -13.875 17.3125 C-15.24845463 13.26843913 -15.33471741 10.02013686 -14 6 C-10.16810431 -0.18176901 -7.11862383 -1.71828851 0 0 Z M-7 1 C-9.1519437 4.22791555 -9.20086443 5.28400809 -9 9 C-6.36 9 -3.72 9 -1 9 C-0.79029441 4.85906302 -0.79029441 4.85906302 -2 1 C-4.41619823 0.74969023 -4.41619823 0.74969023 -7 1 Z " fill="#2F2722" transform="translate(212,123)"/>
<path d="M0 0 C2.97 0 5.94 0 9 0 C9 10.56 9 21.12 9 32 C9.99 32 10.98 32 12 32 C12 32.66 12 33.32 12 34 C8.04 34 4.08 34 0 34 C0 33.34 0 32.68 0 32 C0.99 32 1.98 32 3 32 C3 22.1 3 12.2 3 2 C2.01 2 1.02 2 0 2 C0 1.34 0 0.68 0 0 Z " fill="#2A2B21" transform="translate(218,111)"/>
<path d="M0 0 C10.14201643 -1.48419753 17.81066952 2.00336721 26.90625 5.88671875 C33.76809244 8.80456842 40.84804858 10.92233814 48 13 C47.67 13.66 47.34 14.32 47 15 C40.07 14.67 33.14 14.34 26 14 C26 13.67 26 13.34 26 13 C29.465 12.505 29.465 12.505 33 12 C32.16597656 11.89042969 31.33195312 11.78085938 30.47265625 11.66796875 C21.16957606 10.35722549 13.33282441 8.35579458 5 4 C3.34089996 3.31471955 1.67667436 2.64108137 0 2 C0 1.34 0 0.68 0 0 Z " fill="#0C6238" transform="translate(156,96)"/>
<path d="M0 0 C4.62 0 9.24 0 14 0 C14 0.66 14 1.32 14 2 C12.68 2 11.36 2 10 2 C10.28875 2.68707031 10.5775 3.37414062 10.875 4.08203125 C11.431875 5.43361328 11.431875 5.43361328 12 6.8125 C12.37125 7.70582031 12.7425 8.59914062 13.125 9.51953125 C14 12 14 12 14 15 C14.66 15 15.32 15 16 15 C16.8441938 11.02022924 17.44687265 7.02992782 18 3 C17.34 2.67 16.68 2.34 16 2 C16 1.34 16 0.68 16 0 C19.3 0 22.6 0 26 0 C26 0.66 26 1.32 26 2 C25.41734375 2.34675781 24.8346875 2.69351563 24.234375 3.05078125 C20.77998543 6.06431341 19.77861339 9.94608989 18.25 14.1875 C17.93417969 15.03248047 17.61835938 15.87746094 17.29296875 16.74804688 C16.51733914 18.82814447 15.75355931 20.91182742 15 23 C14.01 23 13.02 23 12 23 C11.66790527 22.09906616 11.66790527 22.09906616 11.32910156 21.17993164 C10.31896397 18.467749 9.28489158 15.76532855 8.25 13.0625 C7.72792969 11.64420898 7.72792969 11.64420898 7.1953125 10.19726562 C6.84726563 9.29814453 6.49921875 8.39902344 6.140625 7.47265625 C5.82641602 6.64000244 5.51220703 5.80734863 5.18847656 4.94946289 C4.16033729 2.80729677 4.16033729 2.80729677 1.86621094 2.22045898 C1.25036133 2.14770752 0.63451172 2.07495605 0 2 C0 1.34 0 0.68 0 0 Z " fill="#2B2920" transform="translate(172,123)"/>
<path d="M0 0 C1.65 0 3.3 0 5 0 C5 0.66 5 1.32 5 2 C12.26 2 19.52 2 27 2 C27 1.34 27 0.68 27 0 C27.66 0 28.32 0 29 0 C30 6.75 30 6.75 30 9 C29.01 8.67 28.02 8.34 27 8 C27 6.68 27 5.36 27 4 C26.01 4.495 26.01 4.495 25 5 C24.67 5.99 24.34 6.98 24 8 C20.94152152 8.54372951 18.11227195 9 15 9 C14.34 9.20625 13.68 9.4125 13 9.625 C11 10 11 10 8 8 C7.67 8.33 7.34 8.66 7 9 C4 9.125 4 9.125 1 9 C0 8 0 8 -0.09765625 6.15234375 C-0.06510417 4.1015625 -0.03255208 2.05078125 0 0 Z M10 3 C11 7 11 7 11 7 Z M13 4 C13.33 4.99 13.66 5.98 14 7 C14.33 6.01 14.66 5.02 15 4 C14.34 4 13.68 4 13 4 Z M5 3 C5 3.66 5 4.32 5 5 C4.01 5 3.02 5 2 5 C2.33 5.66 2.66 6.32 3 7 C4.32 6.67 5.64 6.34 7 6 C6.34 5.01 5.68 4.02 5 3 Z " fill="#2C2725" transform="translate(56,149)"/>
<path d="M0 0 C0.99 0.66 1.98 1.32 3 2 C1.80375 1.979375 0.6075 1.95875 -0.625 1.9375 C-4.18391334 1.94382134 -7.52478812 2.15238735 -11 3 C-11.33 3.66 -11.66 4.32 -12 5 C-4.41 5 3.18 5 11 5 C11 5.33 11 5.66 11 6 C6.55852431 6.85916096 2.37230176 7.11697565 -2.1484375 7.09765625 C-3.13452499 7.09553383 -3.13452499 7.09553383 -4.14053345 7.09336853 C-6.21873731 7.08781762 -8.29682927 7.07527465 -10.375 7.0625 C-11.79296718 7.05747864 -13.21093607 7.05291685 -14.62890625 7.04882812 C-18.08597322 7.03786437 -21.54297567 7.02063421 -25 7 C-25 6.34 -25 5.68 -25 5 C-23.02 5 -21.04 5 -19 5 C-19 4.34 -19 3.68 -19 3 C-6.27406685 -1.86887098 -6.27406685 -1.86887098 0 0 Z " fill="#125C61" transform="translate(217,71)"/>
<path d="M0 0 C1.918125 0.433125 1.918125 0.433125 3.875 0.875 C7.26286735 1.63022318 10.65592005 2.33452857 14.0625 3 C18.41756759 3.85874572 22.70344516 4.88607837 27 6 C27 6.33 27 6.66 27 7 C0.38087774 7.80664007 0.38087774 7.80664007 -5.84765625 2.39453125 C-6.22792969 1.93433594 -6.60820312 1.47414063 -7 1 C-4.03 1.495 -4.03 1.495 -1 2 C-0.67 1.34 -0.34 0.68 0 0 Z " fill="#014A20" transform="translate(165,102)"/>
<path d="M0 0 C3.3989732 3.2990034 6.52978744 6.71936769 9.5703125 10.3515625 C10.98125352 11.9783852 12.45964664 13.49610471 14 15 C13.34 15 12.68 15 12 15 C12 16.65 12 18.3 12 20 C13.32 20.33 14.64 20.66 16 21 C15.34 22.32 14.68 23.64 14 25 C0 8.93908629 0 8.93908629 0 0 Z " fill="#188B44" transform="translate(118,76)"/>
<path d="M0 0 C-2.52956528 3.0916909 -5.22454612 3.90931332 -9 5 C-9 5.66 -9 6.32 -9 7 C-13.625 9.125 -13.625 9.125 -17 8 C-16.34 8 -15.68 8 -15 8 C-15 7.34 -15 6.68 -15 6 C-14.360625 5.87625 -13.72125 5.7525 -13.0625 5.625 C-12.381875 5.41875 -11.70125 5.2125 -11 5 C-10.67 4.34 -10.34 3.68 -10 3 C-10.99 3.33 -11.98 3.66 -13 4 C-16.17153494 4.08324139 -19.33302285 3.85926028 -22.5 3.6875 C-23.36753906 3.65205078 -24.23507813 3.61660156 -25.12890625 3.58007812 C-25.96292969 3.53689453 -26.79695312 3.49371094 -27.65625 3.44921875 C-28.79803711 3.39254028 -28.79803711 3.39254028 -29.96289062 3.3347168 C-32 3 -32 3 -35 1 C-30.47924188 0.83125136 -25.95838284 0.6653709 -21.4375 0.5 C-20.16068359 0.45230469 -18.88386719 0.40460938 -17.56835938 0.35546875 C-15.70727539 0.28779297 -15.70727539 0.28779297 -13.80859375 0.21875 C-12.67220459 0.17685547 -11.53581543 0.13496094 -10.36499023 0.09179688 C-6.90826148 -0.00250263 -3.45783594 -0.0153767 0 0 Z " fill="#E1CC3B" transform="translate(229,77)"/>
<path d="M0 0 C1.09322542 4.09959531 0.87505695 6.84347947 0 11 C-2.31 11 -4.62 11 -7 11 C-8.07889983 6.95412562 -8.0492837 4.09220643 -7 0 C-4.3333581 -1.33332095 -2.83319697 -0.67102033 0 0 Z M-5 2 C-4.67 2.66 -4.34 3.32 -4 4 C-3.34 3.67 -2.68 3.34 -2 3 C-2.99 2.67 -3.98 2.34 -5 2 Z M-5 7 C-5 7.66 -5 8.32 -5 9 C-4.01 9 -3.02 9 -2 9 C-2 8.34 -2 7.68 -2 7 C-2.99 7 -3.98 7 -5 7 Z " fill="#3B4483" transform="translate(236,148)"/>
<path d="M0 0 C2.47992974 0.28602871 4.95879239 0.57870489 7.4375 0.875 C8.46907227 0.99294922 8.46907227 0.99294922 9.52148438 1.11328125 C13.18990274 1.55690394 16.72369589 2.14603045 20.3125 3.03125 C25.69727448 4.27859367 31.0541401 4.4500157 36.5625 4.625 C37.57119141 4.66367188 38.57988281 4.70234375 39.61914062 4.7421875 C42.0792564 4.83546203 44.53938366 4.92125516 47 5 C46.67 5.99 46.34 6.98 46 8 C44.68 8 43.36 8 42 8 C42 8.66 42 9.32 42 10 C41.34 10 40.68 10 40 10 C40 9.34 40 8.68 40 8 C39.34 8 38.68 8 38 8 C38 7.34 38 6.68 38 6 C36.72769531 6.03480469 36.72769531 6.03480469 35.4296875 6.0703125 C23.75286049 6.24995599 12.3014422 5.06479788 1 2 C0.67 1.34 0.34 0.68 0 0 Z " fill="#F1BF24" transform="translate(172,75)"/>
<path d="M0 0 C-0.66 0.66 -1.32 1.32 -2 2 C-2.99 2 -3.98 2 -5 2 C-5 2.99 -5 3.98 -5 5 C-6.32 5 -7.64 5 -9 5 C-9 7.31 -9 9.62 -9 12 C-12.43752007 10.4722133 -15.18953688 8.49818944 -18 6 C-18 5.34 -18 4.68 -18 4 C-15.37764986 3.13683464 -12.75266548 2.28419221 -10.125 1.4375 C-9.37863281 1.19064453 -8.63226563 0.94378906 -7.86328125 0.68945312 C-2.2265625 -1.11328125 -2.2265625 -1.11328125 0 0 Z " fill="#0A717D" transform="translate(209,89)"/>
<path d="M0 0 C0.99 0 1.98 0 3 0 C3.33 0.66 3.66 1.32 4 2 C6.99536737 3.13617383 8.97878489 2.97110486 12 2 C12.33 3.32 12.66 4.64 13 6 C13.66 6 14.32 6 15 6 C14.67 6.99 14.34 7.98 14 9 C8.83458384 9 4.91738302 8.74840285 0 7 C0 4.69 0 2.38 0 0 Z " fill="#2A2924" transform="translate(86,149)"/>
<path d="M0 0 C1.32 0 2.64 0 4 0 C5.32 3.63 6.64 7.26 8 11 C6.68 11 5.36 11 4 11 C4 10.34 4 9.68 4 9 C2.68 9 1.36 9 0 9 C0 9.66 0 10.32 0 11 C-1.32 10.67 -2.64 10.34 -4 10 C-2.68 6.7 -1.36 3.4 0 0 Z M1 4 C2 6 2 6 2 6 Z " fill="#37437D" transform="translate(241,148)"/>
<path d="M0 0 C-2.46824401 2.91019311 -4.93080098 3.93540196 -8.5 5.1875 C-9.4590625 5.53167969 -10.418125 5.87585938 -11.40625 6.23046875 C-14 7 -14 7 -17 7 C-17.33 6.01 -17.66 5.02 -18 4 C-18.99 4 -19.98 4 -21 4 C-21 3.01 -21 2.02 -21 1 C-19.51886719 1.01740234 -19.51886719 1.01740234 -18.0078125 1.03515625 C-16.72648438 1.04417969 -15.44515625 1.05320312 -14.125 1.0625 C-12.21074219 1.07990234 -12.21074219 1.07990234 -10.2578125 1.09765625 C-6.58709799 0.98762284 -3.76957869 -0.09919944 0 0 Z " fill="#0A9443" transform="translate(203,110)"/>
<path d="M0 0 C0.99 0 1.98 0 3 0 C3.1953125 2.05078125 3.390625 4.1015625 3.5859375 6.15234375 C3.72257813 6.76207031 3.85921875 7.37179688 4 8 C4.66 8.33 5.32 8.66 6 9 C5.979375 7.88625 5.95875 6.7725 5.9375 5.625 C6 2 6 2 7 0 C7.99 0 8.98 0 10 0 C10.05399736 1.45792884 10.09279177 2.91642712 10.125 4.375 C10.14820313 5.18710938 10.17140625 5.99921875 10.1953125 6.8359375 C10 9 10 9 8 11 C5 11.25 5 11.25 2 11 C0 9 0 9 -0.1953125 6.8359375 C-0.17210937 6.02382812 -0.14890625 5.21171875 -0.125 4.375 C-0.10695312 3.55773437 -0.08890625 2.74046875 -0.0703125 1.8984375 C-0.04710937 1.27195313 -0.02390625 0.64546875 0 0 Z " fill="#CE1C18" transform="translate(217,148)"/>
<path d="M0 0 C7.92 0 15.84 0 24 0 C24 0.99 24 1.98 24 3 C16.08 3 8.16 3 0 3 C0 2.01 0 1.02 0 0 Z " fill="#34231F" transform="translate(73,142)"/>
<path d="M0 0 C7.92 0 15.84 0 24 0 C24 0.99 24 1.98 24 3 C16.08 3 8.16 3 0 3 C0 2.01 0 1.02 0 0 Z " fill="#33241E" transform="translate(73,125)"/>
<path d="M0 0 C7.92 0 15.84 0 24 0 C24 0.99 24 1.98 24 3 C16.08 3 8.16 3 0 3 C0 2.01 0 1.02 0 0 Z " fill="#33251E" transform="translate(73,108)"/>
<path d="M0 0 C3.25188586 0.61543956 6.50109779 1.24401486 9.75 1.875 C11.13058594 2.13603516 11.13058594 2.13603516 12.5390625 2.40234375 C13.87324219 2.66337891 13.87324219 2.66337891 15.234375 2.9296875 C16.45979004 3.16534424 16.45979004 3.16534424 17.70996094 3.40576172 C20.01937942 4.00502873 21.91324926 4.85605833 24 6 C22.02 6 20.04 6 18 6 C18 6.66 18 7.32 18 8 C13.54856736 7.35731596 9.41118353 6.29333357 5.125 4.9375 C3.97257813 4.57527344 2.82015625 4.21304688 1.6328125 3.83984375 C0.76398438 3.56269531 -0.10484375 3.28554687 -1 3 C-0.67 2.01 -0.34 1.02 0 0 Z " fill="#9B331A" transform="translate(174,70)"/>
<path d="M0 0 C0.99 0.66 1.98 1.32 3 2 C3 2.66 3 3.32 3 4 C2.34 4 1.68 4 1 4 C0.67 4.66 0.34 5.32 0 6 C-0.66 5.01 -1.32 4.02 -2 3 C-4.58380177 2.74969023 -4.58380177 2.74969023 -7 3 C-6.67 4.65 -6.34 6.3 -6 8 C-7.65614657 8.38218767 -9.32457024 8.71395102 -11 9 C-12 8 -12 8 -12.3125 5.625 C-12 3 -12 3 -10.5 1.1875 C-6.78570668 -0.57678933 -4.10647924 -0.32591105 0 0 Z " fill="#302526" transform="translate(165,122)"/>
<path d="M0 0 C2.94328298 0.55186556 5.79417378 1.21536916 8.6875 2 C13.40465271 3.20860127 18.15546795 3.62276185 23 4 C19.68735796 6.20842803 19.16548604 6.19725756 15.4375 5.6875 C14.65246094 5.58824219 13.86742187 5.48898438 13.05859375 5.38671875 C11 5 11 5 9 4 C9.66 5.65 10.32 7.3 11 9 C5.70841026 7.59928507 3.22521956 4.14512755 0 0 Z " fill="#264B1B" transform="translate(143,91)"/>
<path d="M0 0 C0 0.66 0 1.32 0 2 C0.99 2.33 1.98 2.66 3 3 C-3.27 3 -9.54 3 -16 3 C-15.67 2.01 -15.34 1.02 -15 0 C-9.77254141 -1.2063366 -5.23471686 -0.75612577 0 0 Z " fill="#067689" transform="translate(221,73)"/>
<path d="M0 0 C0.33 0.99 0.66 1.98 1 3 C2.32 2.67 3.64 2.34 5 2 C5 3.32 5 4.64 5 6 C2.65147472 7.17426264 1.26225935 7.11508173 -1.3515625 7.09765625 C-2.20234375 7.09443359 -3.053125 7.09121094 -3.9296875 7.08789062 C-4.81914062 7.07951172 -5.70859375 7.07113281 -6.625 7.0625 C-7.5221875 7.05798828 -8.419375 7.05347656 -9.34375 7.04882812 C-11.56256648 7.03702591 -13.78125018 7.02056155 -16 7 C-16 6.67 -16 6.34 -16 6 C-12.04 6 -8.08 6 -4 6 C-3.34 4.68 -2.68 3.36 -2 2 C-1.34 1.34 -0.68 0.68 0 0 Z " fill="#1D8943" transform="translate(181,111)"/>
<path d="M0 0 C0.66 0 1.32 0 2 0 C2 0.66 2 1.32 2 2 C4.31 2 6.62 2 9 2 C9 2.66 9 3.32 9 4 C13.62 4 18.24 4 23 4 C23 4.66 23 5.32 23 6 C24.98 6 26.96 6 29 6 C29.33 5.34 29.66 4.68 30 4 C30.33 4.99 30.66 5.98 31 7 C22.7574683 7.26305952 15.08808989 6.60614551 7 5 C7 4.34 7 3.68 7 3 C5.02 3 3.04 3 1 3 C0.67 2.01 0.34 1.02 0 0 Z " fill="#456B63" transform="translate(157,51)"/>
<path d="M0 0 C0.33 0 0.66 0 1 0 C1 10.23 1 20.46 1 31 C1.99 31 2.98 31 4 31 C4 31.66 4 32.32 4 33 C2.02 32.67 0.04 32.34 -2 32 C-2.33 30.35 -2.66 28.7 -3 27 C-2.34 27 -1.68 27 -1 27 C-0.67 18.09 -0.34 9.18 0 0 Z " fill="#363730" transform="translate(226,112)"/>
<path d="M0 0 C2.31 0.33 4.62 0.66 7 1 C7 1.66 7 2.32 7 3 C8.953125 2.96744792 10.90625 2.93489583 12.859375 2.90234375 C15 3 15 3 16.8125 3.5 C19.97156057 4.22207099 23.01579352 4.09244636 26.25 4.0625 C27.51328125 4.05347656 28.7765625 4.04445313 30.078125 4.03515625 C31.52445313 4.01775391 31.52445313 4.01775391 33 4 C33 4.66 33 5.32 33 6 C26.73 6 20.46 6 14 6 C14 5.34 14 4.68 14 4 C10.7 4 7.4 4 4 4 C4 3.34 4 2.68 4 2 C2.68 2 1.36 2 0 2 C0 1.34 0 0.68 0 0 Z " fill="#C1623C" transform="translate(157,53)"/>
<path d="M0 0 C0.66 0 1.32 0 2 0 C3.65 3.3 5.3 6.6 7 10 C6.01 10 5.02 10 4 10 C4.33 13.3 4.66 16.6 5 20 C2.95652069 15.91304138 2.14361322 12.18913351 1.375 7.75 C1.2409375 7.00492188 1.106875 6.25984375 0.96875 5.4921875 C0.64033324 3.662437 0.3194202 1.83134246 0 0 Z " fill="#166D7A" transform="translate(144,9)"/>
<path d="M0 0 C3.94727588 -0.17942163 6.5980513 -0.09350689 10 2 C10 1.34 10 0.68 10 0 C10.66 0 11.32 0 12 0 C12 3.3 12 6.6 12 10 C11.34 10 10.68 10 10 10 C9.649375 9.071875 9.29875 8.14375 8.9375 7.1875 C6.40080981 3.0142355 4.5289826 2.53814504 0 1 C0 0.67 0 0.34 0 0 Z " fill="#40241E" transform="translate(236,122)"/>
<path d="M0 0 C-2.05233685 2.2477975 -3.00667261 3.0022242 -6 4 C-6 3.34 -6 2.68 -6 2 C-15.57 2 -25.14 2 -35 2 C-35 1.67 -35 1.34 -35 1 C-30.47924188 0.83125136 -25.95838284 0.6653709 -21.4375 0.5 C-20.16068359 0.45230469 -18.88386719 0.40460938 -17.56835938 0.35546875 C-15.70727539 0.28779297 -15.70727539 0.28779297 -13.80859375 0.21875 C-12.67220459 0.17685547 -11.53581543 0.13496094 -10.36499023 0.09179688 C-6.90826148 -0.00250263 -3.45783594 -0.0153767 0 0 Z " fill="#9CA138" transform="translate(229,77)"/>
<path d="M0 0 C4.95 1.98 9.9 3.96 15 6 C15 6.66 15 7.32 15 8 C13.02 8 11.04 8 9 8 C9 7.34 9 6.68 9 6 C8.071875 5.87625 7.14375 5.7525 6.1875 5.625 C3 5 3 5 0 3 C0 2.01 0 1.02 0 0 Z " fill="#9A3019" transform="translate(157,63)"/>
<path d="M0 0 C0.99966797 0.20302734 0.99966797 0.20302734 2.01953125 0.41015625 C4.24306977 0.85020123 6.47029346 1.27170154 8.69921875 1.68359375 C10.02867215 1.93475656 11.35809874 2.18606135 12.6875 2.4375 C13.36361328 2.55931641 14.03972656 2.68113281 14.73632812 2.80664062 C19.77409175 3.77409175 19.77409175 3.77409175 22 6 C14.54985313 6.58432525 7.91357527 4.78167346 1 2 C0.67 1.34 0.34 0.68 0 0 Z " fill="#D5C035" transform="translate(142,89)"/>
<path d="M0 0 C0 1.65 0 3.3 0 5 C-0.99 5.33 -1.98 5.66 -3 6 C-3 4.68 -3 3.36 -3 2 C-5.64 2.33 -8.28 2.66 -11 3 C-11 3.66 -11 4.32 -11 5 C-13.31 5 -15.62 5 -18 5 C-12.21012355 1.14008237 -6.93253894 -0.43328368 0 0 Z " fill="#1C7673" transform="translate(227,83)"/>
<path d="M0 0 C0 0.66 0 1.32 0 2 C7.26 2 14.52 2 22 2 C22 2.33 22 2.66 22 3 C12.1 3 2.2 3 -8 3 C-8 2.34 -8 1.68 -8 1 C-2.25 0 -2.25 0 0 0 Z " fill="#163C30" transform="translate(200,75)"/>
<path d="M0 0 C1.4589426 0.47730838 2.91713496 0.95691042 4.375 1.4375 C5.18710938 1.70433594 5.99921875 1.97117188 6.8359375 2.24609375 C9 3 9 3 11 4 C11.33 4.99 11.66 5.98 12 7 C15.00007271 8.70855022 15.00007271 8.70855022 18 10 C15 11 15 11 12.94921875 10.1796875 C8.2374297 7.46166066 4.00351016 4.69554784 0 1 C0 0.67 0 0.34 0 0 Z " fill="#893605" transform="translate(146,59)"/>
<path d="M0 0 C3.07344727 1.48007023 5.96630768 3.15694536 8.875 4.9375 C12.51803836 7.14164599 16.15339413 9.17792354 20 11 C19.34 11.66 18.68 12.32 18 13 C15.93668794 11.89735154 13.87438411 10.79281634 11.8125 9.6875 C10.66394531 9.07261719 9.51539063 8.45773438 8.33203125 7.82421875 C7.23246094 7.22222656 6.13289062 6.62023437 5 6 C4.03449219 5.49082031 3.06898438 4.98164062 2.07421875 4.45703125 C1.38972656 3.97621094 0.70523438 3.49539062 0 3 C0 2.01 0 1.02 0 0 Z " fill="#F5BC30" transform="translate(145,60)"/>
<path d="M0 0 C0.763125 0.20625 1.52625 0.4125 2.3125 0.625 C0.9925 1.615 -0.3275 2.605 -1.6875 3.625 C-1.0275 3.955 -0.3675 4.285 0.3125 4.625 C0.3125 5.615 0.3125 6.605 0.3125 7.625 C-1.3375 7.295 -2.9875 6.965 -4.6875 6.625 C-5.0175 4.975 -5.3475 3.325 -5.6875 1.625 C-2.6875 -0.375 -2.6875 -0.375 0 0 Z " fill="#384472" transform="translate(233.6875,147.375)"/>
<path d="M0 0 C0.66 0.33 1.32 0.66 2 1 C-1.07517084 11.55808656 -1.07517084 11.55808656 -3 16 C-3.99 16 -4.98 16 -6 16 C-6 15.34 -6 14.68 -6 14 C-5.34 14 -4.68 14 -4 14 C-4 13.34 -4 12.68 -4 12 C-4.66 11.67 -5.32 11.34 -6 11 C-5.01 11 -4.02 11 -3 11 C-3.33 10.01 -3.66 9.02 -4 8 C-3.34 8 -2.68 8 -2 8 C-1.855625 7.236875 -1.71125 6.47375 -1.5625 5.6875 C-1 3 -1 3 0 0 Z " fill="#372223" transform="translate(190,130)"/>
<path d="M0 0 C-0.66 0.66 -1.32 1.32 -2 2 C-2.99 2 -3.98 2 -5 2 C-5 2.99 -5 3.98 -5 5 C-9.29 5 -13.58 5 -18 5 C-14.81886649 2.87924433 -12.07995044 1.93982824 -8.4375 0.8125 C-7.28121094 0.44769531 -6.12492188 0.08289063 -4.93359375 -0.29296875 C-2 -1 -2 -1 0 0 Z " fill="#39795C" transform="translate(209,89)"/>
<path d="M0 0 C3.35882075 1.41231461 5.13329047 3.03368978 7.3125 5.9375 C8.11107422 6.97197266 8.11107422 6.97197266 8.92578125 8.02734375 C9.28027344 8.67832031 9.63476562 9.32929687 10 10 C9.67 10.99 9.34 11.98 9 13 C5.41193683 9.61127367 2.54315201 6.23858668 0 2 C0 1.34 0 0.68 0 0 Z " fill="#E2532E" transform="translate(286,26)"/>
<path d="M0 0 C0.99 0 1.98 0 3 0 C3.8125 2.6875 3.8125 2.6875 4 6 C1.5625 8.875 1.5625 8.875 -1 11 C-1.14285714 3.57142857 -1.14285714 3.57142857 0 0 Z " fill="#057A7C" transform="translate(221,85)"/>
<path d="M0 0 C-2.42195448 2.87255066 -4.59742703 3.70838919 -8.1875 4.6875 C-9.08855469 4.93886719 -9.98960937 5.19023438 -10.91796875 5.44921875 C-11.60503906 5.63097656 -12.29210937 5.81273438 -13 6 C-12.375 3.5625 -12.375 3.5625 -11 1 C-7.33224953 -0.05957236 -3.80092848 -0.11179201 0 0 Z " fill="#12913A" transform="translate(203,110)"/>
<path d="M0 0 C0.99 0 1.98 0 3 0 C3 3.63 3 7.26 3 11 C1.68 10.67 0.36 10.34 -1 10 C-0.67 6.7 -0.34 3.4 0 0 Z " fill="#232D21" transform="translate(130,111)"/>
<path d="M0 0 C-0.33 0.66 -0.66 1.32 -1 2 C-7.93 1.67 -14.86 1.34 -22 1 C-22 0.67 -22 0.34 -22 0 C-19.64763914 -0.39357389 -17.29504307 -0.76503584 -14.9375 -1.125 C-14.28072266 -1.23714844 -13.62394531 -1.34929687 -12.94726562 -1.46484375 C-7.95830478 -2.2021286 -4.65157069 -1.63319127 0 0 Z " fill="#0E5A2A" transform="translate(204,109)"/>
<path d="M0 0 C0.53625 0.680625 1.0725 1.36125 1.625 2.0625 C2.91803187 3.66177626 4.23190878 5.24795975 5.63671875 6.75 C6.18972656 7.348125 6.74273437 7.94625 7.3125 8.5625 C7.84488281 9.12066406 8.37726563 9.67882813 8.92578125 10.25390625 C10 12 10 12 9.66796875 14.21484375 C9.44753906 14.80394531 9.22710937 15.39304687 9 16 C8.401875 15.071875 7.80375 14.14375 7.1875 13.1875 C5.23887583 10.13980071 5.23887583 10.13980071 3.375 8.375 C1.71711129 6.71711129 0.88025669 5.1667857 0 3 C0 2.01 0 1.02 0 0 Z " fill="#D2581F" transform="translate(125,28)"/>
<path d="M0 0 C0.99 0 1.98 0 3 0 C5.42857143 7.42857143 5.42857143 7.42857143 4 11 C3.34 10.67 2.68 10.34 2 10 C2.33 8.68 2.66 7.36 3 6 C2.01 6 1.02 6 0 6 C0 4.02 0 2.04 0 0 Z " fill="#232A2D" transform="translate(165,134)"/>
<path d="M0 0 C0.33 0.99 0.66 1.98 1 3 C3.31 3.33 5.62 3.66 8 4 C8 4.66 8 5.32 8 6 C4.7 6 1.4 6 -2 6 C-1.125 1.125 -1.125 1.125 0 0 Z " fill="#252E1D" transform="translate(120,139)"/>
<path d="M0 0 C0.66 0 1.32 0 2 0 C2 0.99 2 1.98 2 3 C3.32 3.33 4.64 3.66 6 4 C6.33 5.32 6.66 6.64 7 8 C5.02 8.99 5.02 8.99 3 10 C2.67 9.01 2.34 8.02 2 7 C2.33 6.67 2.66 6.34 3 6 C2.01 5.67 1.02 5.34 0 5 C0 3.35 0 1.7 0 0 Z " fill="#089444" transform="translate(130,91)"/>
<path d="M0 0 C0.66 0.33 1.32 0.66 2 1 C0.55873214 4.36295835 -1.20592655 6.62927102 -4 9 C-4.99 9 -5.98 9 -7 9 C-5.44499019 5.18315774 -2.96404505 2.80804268 0 0 Z " fill="#E2552B" transform="translate(256,4)"/>
<path d="M0 0 C1.258125 -0.04125 2.51625 -0.0825 3.8125 -0.125 C4.52019531 -0.14820312 5.22789062 -0.17140625 5.95703125 -0.1953125 C8 0 8 0 11 2 C11 2.66 11 3.32 11 4 C10.34 4 9.68 4 9 4 C8.67 4.66 8.34 5.32 8 6 C7.34 5.01 6.68 4.02 6 3 C2.94570927 1.78715124 2.94570927 1.78715124 0 1 C0 0.67 0 0.34 0 0 Z " fill="#372418" transform="translate(157,122)"/>
<path d="M0 0 C4.25209792 4.12324647 8.13635705 8.51282966 12 13 C9 13 9 13 6.73828125 10.91796875 C5.93777344 10.01691406 5.13726562 9.11585937 4.3125 8.1875 C3.50425781 7.29417969 2.69601563 6.40085937 1.86328125 5.48046875 C0 3 0 3 0 0 Z " fill="#F7BF36" transform="translate(133,46)"/>
<path d="M0 0 C0.99 0 1.98 0 3 0 C2.773125 0.5775 2.54625 1.155 2.3125 1.75 C1.73494807 4.12172477 1.73494807 4.12172477 3.4375 6.25 C3.953125 6.8275 4.46875 7.405 5 8 C2.625 7.75 2.625 7.75 0 7 C-1.3125 4.9375 -1.3125 4.9375 -2 3 C-1.34 2.01 -0.68 1.02 0 0 Z " fill="#ED592C" transform="translate(259,27)"/>
<path d="M0 0 C3.43143206 3.25986046 6.48830681 6.46492044 8 11 C8.66 11.33 9.32 11.66 10 12 C9.67 12.99 9.34 13.98 9 15 C1.33257403 5.77448747 1.33257403 5.77448747 0 0 Z " fill="#8E3301" transform="translate(129,37)"/>
<path d="M0 0 C2.64752004 2.57784846 4.94432065 4.91648098 7 8 C5.02 8.99 5.02 8.99 3 10 C0 3.375 0 3.375 0 0 Z " fill="#29812A" transform="translate(118,76)"/>
<path d="M0 0 C1.62818946 0.22830701 3.2526349 0.48343576 4.875 0.75 C6.23238281 0.95882812 6.23238281 0.95882812 7.6171875 1.171875 C10 2 10 2 11.3203125 4.078125 C11.54460937 4.71234375 11.76890625 5.3465625 12 6 C10.55903414 5.57405412 9.12231288 5.13373367 7.6875 4.6875 C6.88699219 4.44386719 6.08648437 4.20023437 5.26171875 3.94921875 C2.90035427 2.95817977 1.66120007 1.91925057 0 0 Z " fill="#DB5C33" transform="translate(157,62)"/>
<path d="M0 0 C-1.5294997 3.44137432 -3.45369552 6.2222133 -6 9 C-6.99 9 -7.98 9 -9 9 C-7.45665977 5.21180126 -4.44676575 0 0 0 Z " fill="#E8582E" transform="translate(296,42)"/>
<path d="M0 0 C0.99 0.33 1.98 0.66 3 1 C3 3 3 3 0.5625 5.5 C-0.283125 6.325 -1.12875 7.15 -2 8 C-2.33 8.66 -2.66 9.32 -3 10 C-3.66 9.67 -4.32 9.34 -5 9 C-4.42647107 5.12867972 -2.51295648 2.91827204 0 0 Z " fill="#D14B24" transform="translate(275,18)"/>
<path d="M0 0 C1.32 0 2.64 0 4 0 C4.33 1.98 4.66 3.96 5 6 C4.01 6.495 4.01 6.495 3 7 C3 6.34 3 5.68 3 5 C2.01 5 1.02 5 0 5 C0 3.35 0 1.7 0 0 Z " fill="#04738B" transform="translate(148,19)"/>
<path d="M0 0 C4.62 0 9.24 0 14 0 C14 0.33 14 0.66 14 1 C12.02 1 10.04 1 8 1 C8 1.66 8 2.32 8 3 C2.25 2.25 2.25 2.25 0 0 Z " fill="#7B3E1F" transform="translate(184,75)"/>
<path d="M0 0 C4.19360449 0.67097672 7.40334352 2.8558394 11 5 C10.34 5.66 9.68 6.32 9 7 C9 6.34 9 5.68 9 5 C8.2575 5.103125 7.515 5.20625 6.75 5.3125 C4 5 4 5 1.6875 2.5 C1.130625 1.675 0.57375 0.85 0 0 Z " fill="#A1341C" transform="translate(146,57)"/>
<path d="M0 0 C0.33 0 0.66 0 1 0 C1 1.98 1 3.96 1 6 C-0.875 6.625 -0.875 6.625 -3 7 C-3.66 6.34 -4.32 5.68 -5 5 C-5 4.01 -5 3.02 -5 2 C-4.01 2 -3.02 2 -2 2 C-2 2.66 -2 3.32 -2 4 C-1.34 4 -0.68 4 0 4 C0 2.68 0 1.36 0 0 Z " fill="#3B231B" transform="translate(149,124)"/>
<path d="M0 0 C0.33 0.99 0.66 1.98 1 3 C1.99 3.33 2.98 3.66 4 4 C4 4.66 4 5.32 4 6 C4.66 6 5.32 6 6 6 C7.625 8.5 7.625 8.5 9 11 C7.68 10.67 6.36 10.34 5 10 C5 9.01 5 8.02 5 7 C4.360625 6.773125 3.72125 6.54625 3.0625 6.3125 C1 5 1 5 0.25 2.375 C0.1675 1.59125 0.085 0.8075 0 0 Z " fill="#E76339" transform="translate(135,41)"/>
<path d="M0 0 C0.33 0.99 0.66 1.98 1 3 C0.38125 3.28875 -0.2375 3.5775 -0.875 3.875 C-3.13325765 4.93720042 -3.13325765 4.93720042 -5 7 C-5.66 5.68 -6.32 4.36 -7 3 C-4.69 2.01 -2.38 1.02 0 0 Z " fill="#3A231E" transform="translate(162,131)"/>
<path d="M0 0 C1.98 0.99 1.98 0.99 4 2 C4 2.66 4 3.32 4 4 C4.99 4 5.98 4 7 4 C7 4.66 7 5.32 7 6 C4.03 5.505 4.03 5.505 1 5 C0.67 3.35 0.34 1.7 0 0 Z " fill="#352934" transform="translate(223,139)"/>
<path d="M0 0 C0.33 0.99 0.66 1.98 1 3 C-0.9375 5.6875 -0.9375 5.6875 -3 8 C-3.99 7.67 -4.98 7.34 -6 7 C-5.525625 6.566875 -5.05125 6.13375 -4.5625 5.6875 C-2.76313043 3.97690387 -2.76313043 3.97690387 -2 1 C-1.34 0.67 -0.68 0.34 0 0 Z " fill="#302625" transform="translate(216,137)"/>
<path d="M0 0 C0.66 0 1.32 0 2 0 C0.4169423 4.2742558 -2.50568404 6.26531794 -6 9 C-5.67 7.68 -5.34 6.36 -5 5 C-4.34 5 -3.68 5 -3 5 C-2.5359375 4.0409375 -2.5359375 4.0409375 -2.0625 3.0625 C-1 1 -1 1 0 0 Z " fill="#ED6633" transform="translate(282,11)"/>
<path d="M0 0 C0.33 1.32 0.66 2.64 1 4 C-0.32 4.99 -1.64 5.98 -3 7 C-3.66 6.34 -4.32 5.68 -5 5 C-5 4.34 -5 3.68 -5 3 C-2.5 1.375 -2.5 1.375 0 0 Z " fill="#E55024" transform="translate(287,5)"/>
<path d="M0 0 C0.99 0.33 1.98 0.66 3 1 C3.73046875 2.84765625 3.73046875 2.84765625 4.1875 5.0625 C4.34605469 5.79597656 4.50460938 6.52945313 4.66796875 7.28515625 C4.83232422 8.13400391 4.83232422 8.13400391 5 9 C4.01 9 3.02 9 2 9 C0.50178941 5.62902617 0 3.79557881 0 0 Z " fill="#272D23" transform="translate(154,135)"/>
<path d="M0 0 C1.32 0 2.64 0 4 0 C4.625 2.875 4.625 2.875 5 6 C4.34 6.66 3.68 7.32 3 8 C2.01 5.36 1.02 2.72 0 0 Z " fill="#312915" transform="translate(14,112)"/>
<path d="M0 0 C0.99 0 1.98 0 3 0 C1.95125002 2.62187494 1.35068687 3.79371361 -1.125 5.25 C-1.74375 5.4975 -2.3625 5.745 -3 6 C-2.42655063 3.13275314 -2.1385485 2.1385485 0 0 Z " fill="#E45229" transform="translate(258,8)"/>
<path d="M0 0 C0.66 0 1.32 0 2 0 C2.33 2.97 2.66 5.94 3 9 C2.34 8.67 1.68 8.34 1 8 C0.40644386 5.35139573 0.25790731 2.70802678 0 0 Z " fill="#312B29" transform="translate(23,130)"/>
<path d="M0 0 C-1.0625 1.5625 -1.0625 1.5625 -3 3 C-6.6875 2.6875 -6.6875 2.6875 -10 2 C-3.75 -1.125 -3.75 -1.125 0 0 Z " fill="#386A63" transform="translate(208,73)"/>
<path d="M0 0 C0.99 0 1.98 0 3 0 C1.84826645 2.46800047 0.95216435 4.04783565 -1 6 C-1.99 5.67 -2.98 5.34 -4 5 C-2.1875 2.5 -2.1875 2.5 0 0 Z " fill="#E75A2C" transform="translate(290,39)"/>
<path d="M0 0 C0.66 0 1.32 0 2 0 C0.52307692 4.67692308 0.52307692 4.67692308 -2.125 6.3125 C-3.053125 6.6528125 -3.053125 6.6528125 -4 7 C-4 6.34 -4 5.68 -4 5 C-3.34 5 -2.68 5 -2 5 C-1.7834375 4.0409375 -1.7834375 4.0409375 -1.5625 3.0625 C-1 1 -1 1 0 0 Z " fill="#F0612F" transform="translate(269,25)"/>
<path d="M0 0 C0.66 0 1.32 0 2 0 C1.67 2.31 1.34 4.62 1 7 C0.01 7.33 -0.98 7.66 -2 8 C-1.34 5.36 -0.68 2.72 0 0 Z " fill="#392316" transform="translate(172,138)"/>
<path d="M0 0 C1.32 0.33 2.64 0.66 4 1 C3.67 2.65 3.34 4.3 3 6 C2.01 5.67 1.02 5.34 0 5 C0 3.35 0 1.7 0 0 Z " fill="#252A28" transform="translate(183,138)"/>
<path d="M0 0 C2.31 0.33 4.62 0.66 7 1 C7 1.99 7 2.98 7 4 C6.34 4 5.68 4 5 4 C5 3.34 5 2.68 5 2 C3.35 2 1.7 2 0 2 C0 1.34 0 0.68 0 0 Z " fill="#392318" transform="translate(205,122)"/>
<path d="M0 0 C2.475 0.99 2.475 0.99 5 2 C5 2.99 5 3.98 5 5 C4.01 5 3.02 5 2 5 C2 4.34 2 3.68 2 3 C1.34 3 0.68 3 0 3 C0 2.01 0 1.02 0 0 Z " fill="#F8BE25" transform="translate(136,59)"/>
<path d="M0 0 C0.66 0 1.32 0 2 0 C1.67 1.32 1.34 2.64 1 4 C-0.32 4.33 -1.64 4.66 -3 5 C-1.125 1.125 -1.125 1.125 0 0 Z " fill="#DF532E" transform="translate(288,35)"/>
<path d="M0 0 C0.66 0 1.32 0 2 0 C1.1875 1.9375 1.1875 1.9375 0 4 C-0.99 4.33 -1.98 4.66 -3 5 C-1.125 1.125 -1.125 1.125 0 0 Z " fill="#EB5930" transform="translate(263,10)"/>
</svg>
